<?xml version="1.0" encoding="UTF-8"?>
<svg width="600px" height="600px" viewBox="0 0 600 600" version="1.1" xmlns="http://www.w3.org/2000/svg" xmlns:xlink="http://www.w3.org/1999/xlink">
    <title>laptop</title>
    <g id="laptop" stroke="none" stroke-width="1" fill="none" fill-rule="evenodd">
        <g id="Laptop" transform="translate(31.000000, 214.000000)" fill-rule="nonzero">
            <polyline id="Path" stroke="#151515" points="178.261288 236.740041 491.521288 223.790041 537.981288 5.6100407 219.991288 8.1900407 172.471288 236.610041"></polyline>
            <ellipse id="Oval" fill="#EDEDED" cx="359.241288" cy="127.840041" rx="18.99" ry="20.1"></ellipse>
            <path d="M175.501288,220.580041 L4.50128761,220.4 C3.47176983,220.393816 2.57692065,221.105533 2.35128761,222.110041 L0.0512876144,232.380041 C-0.0912082349,233.025435 0.066789046,233.700626 0.480857806,234.215782 C0.894926567,234.730938 1.52035005,235.030425 2.18128761,235.030041 L172.541288,236.590041 C173.553078,236.602782 174.441865,235.920689 174.691288,234.940041 L177.631288,223.290041 C177.795227,222.636028 177.647314,221.942961 177.230664,221.412856 C176.814013,220.882751 176.175518,220.575271 175.501288,220.580041 L175.501288,220.580041 Z" id="Path" fill="#000000"></path>
            <path d="M214.751288,2.2100407 L532.751288,0 C533.20951,-0.00333075723 533.644139,0.202933976 533.931288,0.560040696 L538.001288,5.6100407 L221.251288,8.1700407 C220.532851,8.17747193 219.920575,8.69329412 219.791288,9.4000407 L178.521288,235.450041 C178.388174,236.179314 177.742286,236.701974 177.001288,236.680706 L174.191288,236.600041 C173.756614,236.588754 173.348228,236.389404 173.071945,236.053643 C172.795661,235.717882 172.678671,235.278754 172.751288,234.850041 L212.141288,4.4500407 C212.334848,3.1591298 213.445954,2.20553665 214.751288,2.2100407 Z" id="Path" fill="#000000"></path>
        </g>
    </g>
</svg>