<svg class="svg-social" width="57" height="26" fill="none" xmlns="http://www.w3.org/2000/svg">
  <style>
    .svg-social path { fill: #24292e; }
    @media (prefers-color-scheme: dark) { .svg-social path { fill: #cfd7dd; } }
  </style>
  <g clip-path="url(#a)" fill="#000">
    <path d="M16.432 14.434c0 3.616-3.14 4.875-8.55 4.875H0v-.219l1.74-2.031V3.246L0 1.126v-.22h8.948c4.507 0 6.662 1.885 6.662 4.355 0 2.056-1.447 3.81-4.474 4.46 3.507.505 5.296 2.325 5.296 4.713ZM5.962 1.621v7.873h1.725c2.563 0 3.588-1.625 3.588-3.965s-.895-3.908-3.506-3.908H5.963Zm1.88 8.515h-1.88v8.548H7.68c2.994 0 4.238-1.625 4.238-4.307 0-2.575-1.18-4.24-4.075-4.24Zm17.254 5.834-1.627 3.86c-1.96 4.607-3.7 5.923-4.457 6.167l-1.717-2.917.098-.26c.813-.179 3.669 0 4.8-1.39l.585-1.397L17.775 8.18 16.4 6.554v-.179h7.094v.203l-1.359 1.625 2.961 7.768Zm9.941 3.358v-.195l1.497-1.625V9.984a2.052 2.052 0 0 0-1.322-2.15 2.06 2.06 0 0 0-.89-.125 3.493 3.493 0 0 0-2.506 1.024v8.79l1.505 1.626v.195h-7.012v-.195l1.578-1.625V8.586l-1.44-2.006v-.204h5.23l.139.204v1.543a6.507 6.507 0 0 1 4.645-2.055 3.754 3.754 0 0 1 3.707 2.26c.203.475.307.986.303 1.502v7.718l1.562 1.625v.195l-6.996-.04ZM50.355 1.137 55.318 0l.17.138v16.925l1.343 2.437v.154h-5.182v-2.039a6.002 6.002 0 0 1-4.401 2.023c-3.148 0-5.125-2.6-5.125-6.264 0-4.274 2.709-7.313 7.004-7.313a4.527 4.527 0 0 1 2.44.675V2.55l-1.212-1.21v-.204Zm-4.067 11.294c0 3.535 1.139 5.412 3.156 5.412a3.305 3.305 0 0 0 2.14-.813V8.783c-.252-1.47-1.009-2.177-2.034-2.177-2.058 0-3.286 2.136-3.286 5.825h.024Z"/>
  </g>
  <defs>
    <clipPath id="a">
      <path fill="#000" d="M0 0h56.837v26H0z"/>
    </clipPath>
  </defs>
</svg>
