<?xml version="1.0" encoding="UTF-8" standalone="no"?>

<svg
	xmlns:dc="http://purl.org/dc/elements/1.1/"
	xmlns:cc="http://creativecommons.org/ns#"
	xmlns:rdf="http://www.w3.org/1999/02/22-rdf-syntax-ns#"
	xmlns:svg="http://www.w3.org/2000/svg"
	xmlns="http://www.w3.org/2000/svg"
	version="1.1"
	width="315"
	height="125"
	id="logo"
	xml:space="preserve"
	style="fill:#a91938"
>

	<defs id="definitions"
	/>

	<path
		d="m 122.80406,
			132.37225 1.31375,
			5.79251 c 3.19,
			-2.26375 3.81,
			-2.67625 6.0775,
			-3.9125 2.77625,
			-1.445 6.3875,
			-2.2675 9.48,
			-2.2675 5.875,
			0 11.02,
			3.08999 12.66875,
			7.625 0.7225,
			1.955 1.0325,
			4.22375 1.0325,
			7.52375 l 0,
			38.5275 -13.6,
			0 0,
			-34.30625 c 0,
			-5.9775 -1.02875,
			-7.7275 -4.6375,
			-7.7275 -2.78125,
			0 -6.3875,
			1.855 -9.57875,
			4.73875 l 0,
			37.295 -13.81125,
			0 0,
			-53.28875 11.055,
			0 z"
		id="alt-n2"
	/>

	<g
		transform="matrix(1.25,0,0,-1.25,-659.20439,-303.44392)"
		id="logotype"
	>

		<g
			id="UnitedStatesCensusBureau"
		>

			<g
				id="UnitedStates"
			>

				<g
					id="United"
				>

					<path
						d="m 595.41046,
							-247.76429 0,
							-11.103 c 0,
							-6.129 -2.961,
							-9.46 -8.416,
							-9.46 -5.451,
							0 -8.251,
							3.491 -8.251,
							9.533 l 0,
							11.03 -2.511,
							0 0,
							2.897 8.485,
							0 0,
							-2.897 -2.504,
							0 0,
							-11.368 c 0,
							-4.024 1.648,
							-6.174 4.849,
							-6.174 3.299,
							0 4.916,
							2.095 4.916,
							5.949 l 0,
							11.593 -2.515,
							0 0,
							2.897 8.465,
							0 0,
							-2.897 -2.518,
							0"
						id="U" 
					/>
						
					<path
						d="m 608.83626,
							-267.96839 0,
							2.742 2.01,
							0 0,
							7.884 c 0,
							3.307 -1.058,
							4.249 -2.832,
							4.249 -1.655,
							0 -2.785,
							-0.857 -3.764,
							-2.131 l 0,
							-10.002 2.035,
							0 0,
							-2.742 -7.447,
							0 0,
							2.742 2.006,
							0 0,
							11.842 -2.006,
							0 0,
							2.742 5.412,
							0 0,
							-1.781 c 1.113,
							1.319 2.543,
							2.144 4.61,
							2.144 3.482,
							0 5.388,
							-1.935 5.388,
							-6.826 l 0,
							-8.121 2.05,
							0 0,
							-2.742 -7.462,
							0"
						id="n1"
					/>

					<path
						d="m 618.23956,
							-267.96839 0,
							2.742 2.138,
							0 0,
							11.842 -2.138,
							0 0,
							2.742 5.548,
							0 0,
							-14.584 2.137,
							0 0,
							-2.742 -7.685,
							0 z m 3.499,
							20.229 c -1.228,
							0 -2.221,
							0.995 -2.221,
							2.179 0,
							1.227 0.993,
							2.219 2.221,
							2.219 1.188,
							0 2.175,
							-0.992 2.175,
							-2.219 0,
							-1.184 -0.987,
							-2.179 -2.175,
							-2.179"
						id="i"
					/>

					<path
						d="m 636.55106,
							-267.54359 c -0.797,
							-0.454 -1.919,
							-0.784 -3.206,
							-0.784 -2.277,
							0 -3.721,
							1.487 -3.721,
							4.591 l 0,
							10.352 -2.346,
							0 0,
							2.742 2.346,
							0 0,
							4.953 3.396,
							1.79 0,
							-6.743 3.896,
							0 0,
							-2.742 -3.896,
							0 0,
							-10.034 c 0,
							-1.616 0.427,
							-2.075 1.612,
							-2.075 0.358,
							0 0.714,
							0.056 1.047,
							0.15 l 0.872,
							-2.2 z"
						id="t1"
					/>

					<path
						d="m 645.58816,
							-253.09339 c -2.25,
							0 -3.407,
							-1.641 -3.644,
							-4.705 l 7.371,
							0 c -0.192,
							2.574 -1.089,
							4.705 -3.727,
							4.705 m 7.036,
							-7.412 -10.7,
							0 c 0.257,
							-3.142 1.57,
							-4.918 4.289,
							-4.918 1.952,
							0 3.102,
							0.521 4.647,
							1.686 l 1.456,
							-2.322 c -1.874,
							-1.543 -3.796,
							-2.268 -6.303,
							-2.268 -4.255,
							0 -7.425,
							3.265 -7.425,
							9.003 0,
							5.88 2.938,
							9.045 7.2,
							9.045 4.689,
							0 6.928,
							-3.999 6.928,
							-8.683 0,
							-0.623 -0.07,
							-1.178 -0.092,
							-1.543"
						id="e1" 
					/>

					<path
						d="m 665.88116,
							-255.35899 c -0.73,
							1.027 -2.179,
							2.266 -3.799,
							2.266 -2.276,
							0 -3.474,
							-1.974 -3.474,
							-5.827 0,
							-4.817 1.349,
							-6.613 3.639,
							-6.613 1.39,
							0 2.314,
							0.664 3.634,
							2.216 l 0,
							7.958 z m -0.035,
							-12.609 0,
							1.82 c -1.18,
							-1.396 -2.442,
							-2.18 -4.295,
							-2.18 -3.695,
							0 -6.334,
							2.704 -6.334,
							9.297 0,
							5.938 2.899,
							8.752 6.172,
							8.752 2.083,
							0 3.36,
							-0.893 4.457,
							-2.047 l 0,
							6.089 -2.056,
							0 0,
							2.729 5.429,
							0 0,
							-21.718 1.837,
							0 0,
							-2.742 -5.21,
							0"
						id="d"
					/>

				</g>

				<g
					id="States"
				>

					<path
						d="m 689.86066,
							-268.32779 c -2.242,
							0 -3.894,
							0.889 -5.019,
							2.237 l 0,
							-1.878 -2.974,
							0 0,
							7.065 2.814,
							0 c 0.821,
							-2.833 2.273,
							-4.466 5.115,
							-4.466 2.531,
							0 3.897,
							1.223 3.897,
							3.472 0,
							2.018 -0.632,
							3.031 -4.83,
							4.226 -4.589,
							1.284 -6.828,
							2.772 -6.828,
							6.899 0,
							3.903 2.666,
							6.276 6.604,
							6.276 2.638,
							0 4.12,
							-1.063 4.849,
							-2.248 l 0,
							1.878 2.972,
							0 0,
							-7.061 -2.808,
							0 c -0.427,
							2.711 -1.947,
							4.461 -4.789,
							4.461 -2.444,
							0 -3.33,
							-1.257 -3.33,
							-3.069 0,
							-1.914 1.255,
							-2.979 4.66,
							-3.928 4.62,
							-1.325 7.004,
							-2.918 7.004,
							-7.042 0,
							-4.553 -3.017,
							-6.822 -7.337,
							-6.822"
						id="S"
					/>

					<path
						d="m 708.37336,
							-267.54359 c -0.797,
							-0.454 -1.914,
							-0.784 -3.207,
							-0.784 -2.272,
							0 -3.717,
							1.487 -3.717,
							4.591 l 0,
							10.352 -2.348,
							0 0,
							2.742 2.348,
							0 0,
							4.953 3.394,
							1.79 0,
							-6.743 3.896,
							0 0,
							-2.742 -3.896,
							0 0,
							-10.034 c 0,
							-1.616 0.426,
							-2.075 1.616,
							-2.075 0.357,
							0 0.709,
							0.056 1.042,
							0.15 l 0.872,
							-2.2 z"
						id="t2"
					/>

					<path
						d="m 720.70726,
							-260.34539 c -0.862,
							0.426 -1.811,
							0.76 -3.828,
							0.76 -1.875,
							0 -3.174,
							-1.065 -3.174,
							-2.878 0,
							-2.112 0.966,
							-3.03 2.942,
							-3.03 1.654,
							0 3.113,
							0.918 4.06,
							2.176 l 0,
							2.972 z m 0,
							-7.623 0,
							1.878 c -1.055,
							-1.349 -2.639,
							-2.237 -4.682,
							-2.237 -2.988,
							0 -5.547,
							1.519 -5.547,
							5.765 0,
							3.867 2.732,
							5.686 6.401,
							5.686 1.653,
							0 2.881,
							-0.33 3.828,
							-0.828 l 0,
							1.616 c 0,
							1.885 -1.124,
							2.933 -3.139,
							2.933 -1.678,
							0 -3.005,
							-0.331 -4.29,
							-1.084 l -1.248,
							2.41 c 1.587,
							1.018 3.422,
							1.55 5.744,
							1.55 3.657,
							0 6.236,
							-1.874 6.236,
							-5.809 l 0,
							-9.138 1.883,
							0 0,
							-2.742 -5.186,
							0"
						id="a1"
					/>

					<path
						d="m 736.01196,
							-267.54359 c -0.797,
							-0.454 -1.916,
							-0.784 -3.205,
							-0.784 -2.276,
							0 -3.719,
							1.487 -3.719,
							4.591 l 0,
							10.352 -2.348,
							0 0,
							2.742 2.348,
							0 0,
							4.953 3.394,
							1.79 0,
							-6.743 3.895,
							0 0,
							-2.742 -3.895,
							0 0,
							-10.034 c 0,
							-1.616 0.428,
							-2.075 1.614,
							-2.075 0.359,
							0 0.713,
							0.056 1.046,
							0.15 l 0.87,
							-2.2 z"
						id="t3"
					/>

					<path
						d="m 745.08816,
							-253.09339 c -2.251,
							0 -3.399,
							-1.641 -3.633,
							-4.705 l 7.355,
							0 c -0.18,
							2.574 -1.092,
							4.705 -3.722,
							4.705 m 7.031,
							-7.412 -10.703,
							0 c 0.273,
							-3.142 1.594,
							-4.918 4.288,
							-4.918 1.961,
							0 3.106,
							0.521 4.662,
							1.686 l 1.461,
							-2.322 c -1.885,
							-1.543 -3.808,
							-2.268 -6.315,
							-2.268 -4.252,
							0 -7.425,
							3.265 -7.425,
							9.003 0,
							5.88 2.939,
							9.045 7.192,
							9.045 4.695,
							0 6.937,
							-3.999 6.937,
							-8.683 0,
							-0.623 -0.07,
							-1.178 -0.097,
							-1.543"
						id="e2"
					/>

					<path
						d="m 761.71806,
							-268.22039 c -2.009,
							0 -3.014,
							0.582 -3.927,
							1.641 l 0,
							-1.389 -2.648,
							0 0,
							5.406 2.346,
							0 c 1.049,
							-1.978 2.114,
							-2.97 4.093,
							-2.97 1.422,
							0 2.18,
							0.83 2.18,
							2.023 0,
							1.278 -0.558,
							2.004 -3,
							2.697 -4.224,
							1.227 -5.652,
							2.489 -5.652,
							5.617 0,
							2.513 1.819,
							4.823 5.286,
							4.823 1.546,
							0 2.703,
							-0.371 3.634,
							-1.321 l 0,
							1.051 2.638,
							0 0,
							-5.417 -2.352,
							0 c -0.775,
							1.982 -1.844,
							3.042 -3.728,
							3.042 -1.441,
							0 -2.109,
							-0.754 -2.109,
							-1.917 0,
							-1.05 0.398,
							-1.811 3.002,
							-2.607 4.064,
							-1.253 5.643,
							-2.437 5.643,
							-5.716 0,
							-2.736 -2.076,
							-4.963 -5.406,
							-4.963"
						id="s1"
					/>

				</g>

			</g>

			<g
				id="Census"
			>

				<path
					d="m 565.40166,
						-272.19889 c -3.127,
						2.168 -6.434,
						3.249 -9.91,
						3.249 -4.196,
						0 -8.309,
						-1.916 -10.535,
						-4.998 -2.411,
						-3.328 -3.487,
						-8.159 -3.487,
						-14.908 0,
						-7.909 0.713,
						-12.323 2.589,
						-15.489 2.503,
						-4.247 6.607,
						-6.496 11.965,
						-6.496 3.392,
						0 6.344,
						0.919 9.378,
						2.834 0.356,
						0.249 0.806,
						0.58 1.252,
						0.916 l 5.01,
						-7.849 c -4.714,
						-3.382 -9.809,
						-4.895 -16.531,
						-4.895 -8.571,
						0 -15.183,
						2.583 -20.265,
						7.997 -5,
						5.245 -7.504,
						12.243 -7.504,
						20.737 0,
						7.244 1.337,
						12.992 4.197,
						17.984 4.82,
						8.414 13.747,
						13.409 23.754,
						13.409 5.696,
						0 11.393,
						-1.565 14.899,
						-3.976 l -4.812,
						-8.515 z"
					id="C"
				/>

				<path
					d="m 586.19366,
						-292.59149 12.774,
						0 0,0.493 c 0,
						3.128 -0.329,
						4.779 -1.315,
						6.346 -1.072,
						1.647 -2.637,
						2.473 -4.867,
						2.473 -4.203,
						0 -6.592,
						-3.298 -6.592,
						-9.152 l 0,
						-0.16 z m 19.451,
						-14.426 4.286,
						-6.595 c -4.862,
						-3.958 -9.971,
						-5.852 -15.905,
						-5.852 -12.119,
						0 -19.951,
						8.572 -19.951,
						21.845 0,
						7.581 1.569,
						12.61 5.278,
						16.731 3.462,
						3.873 7.665,
						5.686 13.273,
						5.686 4.865,
						0 9.478,
						-1.649 12.197,
						-4.452 3.877,
						-3.958 5.601,
						-9.642 5.601,
						-18.462 l 0,
						-2.553 -24.396,
						0 0,
						-0.33 c 0,
						-6.513 3.215,
						-10.221 8.904,
						-10.221 3.789,
						0 7.341,
						1.4 10.713,
						4.203"
					id="e3"
				/>

				<path
					d="m 626.66626,
						-275.59534 -0.009,
						-4.634 c 2.552,
						1.811 3.048,
						2.141 4.863,
						3.13 2.22,
						1.156 5.11,
						1.814 7.584,
						1.814 4.7,
						0 8.816,
						-2.472 10.134,
						-6.1 0.578,
						-1.564 0.826,
						-3.379 0.826,
						-6.019 l 0,
						-30.822 -10.879,
						0 0,
						27.445 c 0,
						4.782 -0.824,
						6.182 -3.71,
						6.182 -2.226,
						0 -5.111,
						-1.484 -7.663,
						-3.791 l 0,
						-29.836 -11.049,
						0 0,
						42.631 9.903,
						0 z"
					id="n2"
				/>

				<path
					d="m 684.50716,
						-286.24669 c -4.209,
						2.142 -7.255,
						3.047 -10.386,
						3.047 -3.22,
						0 -5.358,
						-1.648 -5.358,
						-4.119 0,
						-2.142 1.4,
						-3.298 5.274,
						-4.289 l 5.112,
						-1.318 c 5.191,
						-1.316 6.919,
						-2.884 8.4,
						-4.779 1.57,
						-1.978 2.309,
						-4.368 2.309,
						-7.171 0,
						-8.736 -7.25,
						-14.671 -18.046,
						-14.671 -5.058,
						0 -10.593,
						1.567 -16.594,
						4.621 l 3.486,
						8.319 c 3.381,
						-2.06 9.233,
						-4.78 14.009,
						-4.78 3.138,
						0 5.611,
						2.059 5.611,
						4.78 0,
						2.886 -2.062,
						4.369 -6.512,
						5.191 l -4.944,
						0.908 c -2.806,
						0.498 -6.265,
						2.475 -7.752,
						4.289 -1.483,
						1.813 -2.388,
						4.86 -2.388,
						7.58 0,
						8.244 6.515,
						13.766 16.317,
						13.766 6.382,
						0 10.701,
						-1.835 14.424,
						-3.633 l -2.962,
						-7.741 z"
					id="s2"
				/>

				<path
					d="m 719.24056,
						-318.22039 -0.025,
						4.63 c -2.555,
						-1.811 -3.047,
						-2.139 -4.86,
						-3.128 -2.226,
						-1.154 -5.112,
						-1.814 -7.586,
						-1.814 -4.703,
						0 -8.822,
						2.47 -10.14,
						6.101 -0.576,
						1.562 -0.819,
						3.377 -0.819,
						6.014 l 0,
						30.828 10.876,
						0 0,
						-27.446 c 0,
						-4.785 0.823,
						-6.185 3.714,
						-6.185 2.221,
						0 5.107,
						1.486 7.664,
						3.794 l 0,
						29.837 11.044,
						0 0,
						-42.631 -9.868,
						0 z"
					id="u1"
				/>

				<path
					d="m 763.63996,
						-286.24669 c -4.208,
						2.142 -7.257,
						3.047 -10.391,
						3.047 -3.218,
						0 -5.359,
						-1.648 -5.359,
						-4.119 0,
						-2.142 1.402,
						-3.298 5.278,
						-4.289 l 5.113,
						-1.318 c 5.19,
						-1.316 6.921,
						-2.884 8.401,
						-4.779 1.566,
						-1.978 2.305,
						-4.368 2.305,
						-7.171 0,
						-8.736 -7.247,
						-14.671 -18.045,
						-14.671 -5.062,
						0 -10.593,
						1.567 -16.593,
						4.621 l 3.486,
						8.319 c 3.382,
						-2.06 9.232,
						-4.78 14.013,
						-4.78 3.133,
						0 5.607,
						2.059 5.607,
						4.78 0,
						2.886 -2.062,
						4.369 -6.513,
						5.191 l -4.948,
						0.908 c -2.799,
						0.498 -6.259,
						2.475 -7.747,
						4.289 -1.482,
						1.813 -2.389,
						4.86 -2.389,
						7.58 0,
						8.244 6.513,
						13.766 16.321,
						13.766 6.378,
						0 10.698,
						-1.835 14.417,
						-3.633 l -2.956,
						-7.741 z"
					id="s3"
				/>

			</g>

			<g
				id="Bureau"
			>

				<path
					d="m 700.44756,
						-334.33269 0,
						-4.591 2.923,
						0 c 0.711,
						0 1.198,
						0.124 1.587,
						0.39 0.513,
						0.391 0.88,
						1.171 0.88,
						1.974 0,
						0.98 -0.516,
						1.808 -1.246,
						2.077 -0.413,
						0.124 -0.533,
						0.15 -1.32,
						0.15 l -2.824,
						0 z m -0.049,
						6.71 0,
						-3.905 2.729,
						0 c 0.803,
						0 1.174,
						0.046 1.464,
						0.218 0.464,
						0.245 0.879,
						1.074 0.879,
						1.758 0,
						0.708 -0.392,
						1.414 -0.974,
						1.708 -0.294,
						0.121 -0.66,
						0.221 -1.419,
						0.221 l -2.679,
						0 z m -3.369,
						2.904 6.439,
						0 c 2.076,
						0 3.146,
						-0.317 4.174,
						-1.221 0.955,
						-0.828 1.388,
						-1.808 1.388,
						-3.029 0,
						-1.143 -0.409,
						-2.121 -1.144,
						-2.853 -0.487,
						-0.464 -0.78,
						-0.634 -1.562,
						-0.879 2.273,
						-0.682 3.368,
						-2.051 3.368,
						-4.27 0,
						-2.344 -1.465,
						-4.492 -4.443,
						-4.688 -0.535,
						-0.023 -1.247,
						-0.047 -2.172,
						-0.047 l -6.048,
						0 0,
						16.987 z"
					id="B"
				/>

				<path
					d="m 718.94266,
						-341.69989 0,
						0.872 c -0.804,
						-0.781 -1.978,
						-1.195 -3.292,
						-1.195 -1.758,
						0 -3.271,
						0.828 -3.684,
						2.025 -0.197,
						0.563 -0.272,
						1.219 -0.272,
						2.488 l 0,
						8.008 3.221,
						0 0,
						-7.422 c 0,
						-1.121 0.075,
						-1.709 0.271,
						-2.049 0.17,
						-0.342 0.661,
						-0.585 1.148,
						-0.585 0.803,
						0 1.781,
						0.585 2.024,
						1.197 l 0,
						8.859 3.126,
						0 0,
						-12.198 -2.542,
						0 z"
					id="u2"
				/>

				<path
					d="m 727.17406,
						-329.50159 0,
						-1.197 c 0.468,
						0.635 1.028,
						1.17 1.638,
						1.465 0.27,
						0.122 0.71,
						0.194 1.076,
						0.194 0.487,
						0 0.705,
						-0.049 1.221,
						-0.269 l -0.686,
						-2.758 c -0.319,
						0.173 -0.586,
						0.245 -0.955,
						0.245 -0.732,
						0 -1.389,
						-0.342 -2.003,
						-1.05 l 0,
						-8.834 -3.268,
						0 0,
						12.204 2.977,
						0 z"
					id="r"
				/>

				<path
					d="m 735.23366,
						-334.11489 3.783,
						0 0,
						0.148 c 0,
						0.925 -0.097,
						1.413 -0.39,
						1.875 -0.316,
						0.491 -0.784,
						0.735 -1.439,
						0.735 -1.245,
						0 -1.954,
						-0.979 -1.954,
						-2.707 l 0,
						-0.051 z m 5.763,
						-4.271 1.265,
						-1.952 c -1.437,
						-1.174 -2.95,
						-1.732 -4.709,
						-1.732 -3.585,
						0 -5.906,
						2.536 -5.906,
						6.466 0,
						2.245 0.467,
						3.735 1.563,
						4.956 1.026,
						1.146 2.269,
						1.679 3.93,
						1.679 1.438,
						0 2.806,
						-0.486 3.613,
						-1.317 1.143,
						-1.17 1.658,
						-2.854 1.658,
						-5.466 l 0,
						-0.756 -7.227,
						0 0,
						-0.097 c 0,
						-1.929 0.953,
						-3.028 2.639,
						-3.028 1.122,
						0 2.172,
						0.416 3.174,
						1.247"
					id="e4"
				/>

				<path
					d="m 750.71906,
						-336.23889 -0.15,
						0 c -2.264,
						0 -3.046,
						-0.417 -3.046,
						-1.903 0,
						-0.977 0.609,
						-1.637 1.439,
						-1.637 0.611,
						0 1.217,
						0.318 1.708,
						0.855 l 0.049,
						2.685 z m 0.877,
						-5.461 0,
						0.872 c -0.46,
						-0.439 -0.513,
						-0.487 -0.755,
						-0.659 -0.61,
						-0.439 -1.49,
						-0.682 -2.515,
						-0.682 -2.783,
						0 -4.293,
						1.411 -4.293,
						3.904 0,
						2.929 2.024,
						4.298 6,
						4.298 0.245,
						0 0.392,
						0 0.732,
						-0.025 l 0,
						0.513 c 0,
						1.387 -0.267,
						1.852 -1.461,
						1.852 -1.048,
						0 -2.269,
						-0.511 -3.612,
						-1.415 l -1.391,
						2.343 c 0.805,
						0.515 1.147,
						0.682 2.023,
						1.025 1.221,
						0.513 2.274,
						0.732 3.419,
						0.732 2.097,
						0 3.539,
						-0.779 4.027,
						-2.17 0.17,
						-0.515 0.221,
						-0.906 0.221,
						-2.247 l -0.073,
						-4.198 0,
						-0.219 0,
						-3.93 -2.322,
						0.006 z"
					id="a2"
				/>

				<path
					d="m 763.66046,
						-341.69989 0,
						0.872 c -0.807,
						-0.781 -1.977,
						-1.195 -3.297,
						-1.195 -1.758,
						0 -3.267,
						0.828 -3.684,
						2.025 -0.194,
						0.563 -0.272,
						1.219 -0.272,
						2.488 l 0,
						8.008 3.225,
						0 0,
						-7.422 c 0,
						-1.121 0.074,
						-1.709 0.268,
						-2.049 0.175,
						-0.342 0.661,
						-0.585 1.149,
						-0.585 0.804,
						0 1.778,
						0.585 2.022,
						1.197 l 0,
						8.859 3.125,
						0 0,
						-12.198 -2.536,
						0 z"
					id="u3"
				/>

			</g>

		</g>

		<path
			d="m 533.72686,
				-330.37659 150.244,
				0 c 3.133,
				0 5.671,
				-2.531 5.671,
				-5.666 0,
				-3.129 -2.538,
				-5.663 -5.671,
				-5.663 l -150.244,
				0 c -3.127,
				0 -5.669,
				2.534 -5.669,
				5.663 0,
				3.135 2.542,
				5.666 5.669,
				5.666"
			id="underbar"
		/>

		<g
			id="trademark"
		>

			<path
				d="m 771.93976,
					-252.23699 0,
					4.227 -1.579,
					0 0,
					0.565 3.798,
					0 0,
					-0.565 -1.586,
					0 0,
					-4.227 -0.633,
					0 z"
				id="T"
			/>

			<path
				d="m 774.79036,
					-252.23699 0,
					4.792 0.954,
					0 1.135,
					-3.394 c 0.104,
					-0.315 0.181,
					-0.551 0.228,
					-0.71 0.054,
					0.176 0.139,
					0.432 0.256,
					0.77 l 1.147,
					3.334 0.853,
					0 0,
					-4.792 -0.611,
					0 0,
					4.011 -1.393,
					-4.011 -0.572,
					0 -1.387,
					4.079 0,
					-4.079 -0.61,
					0 z"
				id="M"
			/>

		</g>

	</g>

</svg>
