<svg width="2032" height="402" viewBox="0 0 2032 402" fill="none" xmlns="http://www.w3.org/2000/svg">
<path d="M1045.99 195.212C1029.22 195.212 1017.13 200.711 1004.88 206.312V333.06C1016.62 334.179 1023.35 334.179 1034.48 334.179C1074.73 334.179 1080.24 315.748 1080.24 290.015V229.479C1080.24 210.476 1073.94 195.212 1045.99 195.212V195.212ZM778.712 188.295C750.789 188.295 744.417 203.624 744.417 222.609V233.276H812.97V222.609C812.97 203.624 806.598 188.295 778.712 188.295ZM260.949 320.222C260.949 335.241 268.036 343.041 283.675 343.041C300.451 343.041 310.385 337.571 322.632 331.951V301.885H285.949C268.581 301.885 260.949 305.118 260.949 320.222ZM1305.98 195.212C1278.01 195.212 1268.32 210.476 1268.32 229.479V298.831C1268.32 317.882 1278.01 333.192 1305.98 333.192C1333.87 333.192 1343.64 317.882 1343.64 298.831V229.479C1343.63 210.476 1333.86 195.212 1305.98 195.212V195.212ZM123.882 397.985H41.6635V198.981H0.582642V130.41H41.6728V89.2256C41.6728 33.2763 64.8589 0.0150146 130.761 0.0150146H185.63V68.6052H151.335C125.677 68.6052 123.985 78.1917 123.985 96.0771L123.882 130.4H186.006L178.741 198.972H123.882V397.985V397.985ZM404.868 398.502H336.344L333.383 381.171C302.096 398.502 274.173 401.312 255.752 401.312C205.498 401.312 178.75 367.741 178.75 321.312C178.75 266.538 209.962 246.989 265.799 246.989H322.632V235.147C322.632 207.186 319.427 198.981 276.429 198.981H206.128L212.998 130.41H289.84C384.182 130.41 404.868 160.212 404.868 235.701V398.502V398.502ZM637.885 204.009C595.244 196.697 582.998 195.09 562.481 195.09C525.63 195.09 514.492 203.22 514.492 234.517V293.718C514.492 325.015 525.63 333.182 562.481 333.182C582.998 333.182 595.244 331.547 637.885 324.207V391.096C600.536 399.47 576.203 401.669 555.639 401.669C467.368 401.669 432.284 355.25 432.284 288.192V240.156C432.284 173.041 467.368 126.538 555.639 126.538C576.203 126.538 600.536 128.746 637.885 137.158V204.009V204.009ZM895.179 288.192H744.408V293.718C744.408 325.015 755.554 333.182 792.397 333.182C825.517 333.182 845.733 331.547 888.299 324.207V391.096C847.246 399.47 825.855 401.669 785.583 401.669C697.303 401.669 662.199 355.25 662.199 288.192V233.267C662.199 174.592 688.242 126.538 778.703 126.538C869.164 126.538 895.179 174.038 895.179 233.267V288.192V288.192ZM1162.44 289.461C1162.44 354.273 1143.92 401.547 1031.7 401.547C991.175 401.547 967.406 397.985 922.679 391.105V20.6165L1004.87 6.90413V136.5C1022.63 129.902 1045.62 126.547 1066.54 126.547C1148.74 126.547 1162.43 163.398 1162.43 222.618V289.461H1162.44ZM1425.91 290.87C1425.91 346.782 1402.83 401.011 1306.25 401.011C1209.62 401.011 1186.11 346.782 1186.11 290.87V236.885C1186.11 180.945 1209.62 126.707 1306.25 126.707C1402.83 126.707 1425.91 180.945 1425.91 236.885V290.87ZM1689.2 290.87C1689.2 346.782 1666.09 401.011 1569.53 401.011C1472.9 401.011 1449.39 346.782 1449.39 290.87V236.885C1449.39 180.945 1472.9 126.707 1569.53 126.707C1666.09 126.707 1689.2 180.945 1689.2 236.885V290.87ZM1959.4 397.985H1870.31L1794.96 272.205V397.985H1712.74V20.6071L1794.96 6.89472V249.836L1870.31 130.41H1959.4L1877.14 260.739L1959.4 397.985V397.985ZM1569.25 195.212C1541.33 195.212 1531.64 210.476 1531.64 229.479V298.831C1531.64 317.882 1541.33 333.192 1569.25 333.192C1597.13 333.192 1607 317.882 1607 298.831V229.479C1607 210.476 1597.13 195.212 1569.25 195.212ZM2006.33 351.049C2020.17 351.049 2031.19 362.336 2031.19 376.434C2031.19 390.748 2020.16 401.914 2006.22 401.914C1992.35 401.914 1981.1 390.748 1981.1 376.434C1981.1 362.336 1992.35 351.049 2006.22 351.049H2006.33V351.049ZM2006.22 354.996C1995.07 354.996 1985.94 364.592 1985.94 376.434C1985.94 388.492 1995.08 397.966 2006.33 397.966C2017.58 398.079 2026.58 388.492 2026.58 376.547C2026.58 364.601 2017.58 354.996 2006.33 354.996H2006.22V354.996ZM2001.49 391.209H1996.98V362.882C1999.35 362.553 2001.61 362.224 2004.99 362.224C2009.28 362.224 2012.08 363.126 2013.8 364.357C2015.46 365.607 2016.35 367.515 2016.35 370.212C2016.35 373.953 2013.89 376.199 2010.86 377.111V377.327C2013.33 377.788 2015.01 380.024 2015.58 384.188C2016.24 388.596 2016.93 390.278 2017.37 391.199H2012.64C2011.97 390.278 2011.29 387.694 2010.72 383.962C2010.07 380.363 2008.24 379.009 2004.63 379.009H2001.5V391.209H2001.49ZM2001.49 375.532H2004.77C2008.47 375.532 2011.62 374.169 2011.62 370.664C2011.62 368.182 2009.83 365.711 2004.77 365.711C2003.29 365.711 2002.27 365.823 2001.49 365.927V375.532Z" fill="#3B5998"/>
</svg>
