<svg width="281" height="86" viewBox="0 0 281 86" fill="none" xmlns="http://www.w3.org/2000/svg">
<path d="M208.564 82.812L231.954 56.5313L208.564 30.2469H233.243L244.827 43.0142L255.982 30.2469H279.8L256.521 56.4228L280.119 82.812H255.34L243.86 69.9399L232.489 82.812H208.564Z" fill="#FF6600"/>
<path d="M208.564 18.4638H182.074V30.2469H208.564V48.0052H182.074V64.305H208.564V82.812H162.603V0.00799561H208.564V18.4638Z" fill="#FF6600"/>
<path d="M143.215 0.00799561V33.8954H143.001C138.709 28.9617 133.346 27.2472 127.123 27.2472C114.377 27.2472 104.775 35.9123 101.405 47.3687C97.5613 34.7453 87.6488 27.0106 72.95 27.0106C61.0132 27.0106 51.5871 32.3687 46.668 41.0997V30.2481H21.9945V18.4662H48.9203V0.00799561H0V82.8133H21.9945V48.0052H43.9171C43.2634 50.5623 42.9147 53.2999 42.9147 56.1887C42.9147 73.4616 56.1099 85.5813 72.95 85.5813C87.111 85.5813 96.4431 78.9331 101.379 66.8122H82.5309C79.9811 70.4533 78.0471 71.5349 72.95 71.5349C67.0395 71.5349 61.9436 66.378 61.9436 60.2651H100.323C101.988 73.9847 112.675 85.8167 127.341 85.8167C133.667 85.8167 139.459 82.7047 143.001 77.4503H143.215V82.8108H162.603V0.00799561H143.215ZM62.5557 48.2527C63.7788 42.9934 67.8577 39.5559 72.95 39.5559C78.5556 39.5559 82.4272 42.8873 83.4454 48.2527H62.5557ZM131.449 70.2046C124.302 70.2046 119.861 63.5454 119.861 56.5923C119.861 49.16 123.724 42.013 131.449 42.013C139.459 42.013 142.65 49.16 142.65 56.5923C142.649 63.6405 139.268 70.2046 131.449 70.2046Z" fill="#652C8F"/>
</svg>
