<svg width="188" height="222" viewBox="0 0 188 222" fill="none" xmlns="http://www.w3.org/2000/svg">
<path d="M39.1416 0H3.53537C1.58284 0 0 1.58205 0 3.5336V217.877C0 219.829 1.58284 221.411 3.53537 221.411H39.1416C41.0942 221.411 42.677 219.829 42.677 217.877V3.5336C42.677 1.58205 41.0942 0 39.1416 0Z" fill="#809FB2"/>
<path d="M183.559 0H163.609C161.657 0 160.074 1.58205 160.074 3.5336V217.877C160.074 219.829 161.657 221.411 163.609 221.411H183.559C185.511 221.411 187.094 219.829 187.094 217.877V3.5336C187.094 1.58205 185.511 0 183.559 0Z" fill="#EAAA40"/>
<path d="M140.517 106.317H62.7671C60.8145 106.317 59.2317 107.899 59.2317 109.85V126.789C59.2317 128.741 60.8145 130.323 62.7671 130.323H140.517C142.47 130.323 144.053 128.741 144.053 126.789V109.85C144.053 107.899 142.47 106.317 140.517 106.317Z" fill="#45A88E"/>
</svg>
