<svg width="1021" height="211" viewBox="0 0 1021 211" fill="none" xmlns="http://www.w3.org/2000/svg">
<path d="M689.406 1.519C699.395 -1.975 710.4 5.972 711.907 16.047C713.655 26.601 703.496 37.029 692.928 35.775C684.457 35.07 677.217 27.305 677.229 18.795C676.863 11.144 682.4 4.098 689.406 1.519Z" fill="#231F20"/>
<path d="M353.853 59.448C353.739 44.751 353.797 30.04 353.839 15.343C364.619 15.485 375.412 15.47 386.192 15.385C386.122 30.069 386.305 44.738 386.108 59.42C395.775 59.42 405.455 59.505 415.135 59.378C415.036 67.551 415.896 75.737 415.164 83.911C405.468 84.08 395.604 83.206 386.008 84.306L384.698 85.052C384.177 111.318 385.135 137.597 384.247 163.865C384.177 168.332 384.797 172.784 385.643 177.168C386.093 176.97 386.967 176.576 387.417 176.378C389.573 178.238 391.307 180.957 394.35 181.422C401.354 182.762 408.554 182.014 415.614 181.395C414.924 189.722 415.346 198.092 415.135 206.434C400.748 207.984 385.656 209.83 371.706 204.913C365.464 202.854 360.011 198.304 357.517 192.147C354.375 184.623 353.979 176.308 353.81 168.262C353.81 140.121 353.753 111.981 353.839 83.842C346.624 83.828 339.41 83.856 332.209 83.828C332.181 75.697 332.181 67.566 332.265 59.45C339.466 59.434 346.652 59.434 353.853 59.448Z" fill="#231F20"/>
<path d="M984.431 48.133C989.08 48.104 993.73 48.146 998.396 48.133C998.24 49.19 998.127 50.261 998.029 51.332C996.815 51.275 994.421 51.162 993.223 51.107C992.038 51.078 990.869 51.078 989.714 51.092C987.967 51.134 986.22 51.191 984.5 51.275C984.486 50.486 984.445 48.922 984.431 48.133Z" fill="#2B2A2A"/>
<path d="M1020.56 48.175C1019.15 48.118 1017.77 48.062 1016.39 48.007C1014.43 52.078 1012.94 56.348 1011 60.42C1009.6 56.236 1008.13 52.065 1006.26 48.049C1004.83 48.076 1003.42 48.104 1002.03 48.118C1001.9 53.966 1001.96 59.815 1001.97 65.662C1002.69 65.662 1004.13 65.646 1004.85 65.646C1004.75 60.856 1004.62 56.065 1004.8 51.288C1006.86 56.488 1008.31 61.984 1011.33 66.76C1013.93 61.8 1015.65 56.461 1017.57 51.203C1017.67 56.024 1017.51 60.828 1017.47 65.633C1018.25 65.662 1019.78 65.717 1020.56 65.732C1020.49 59.884 1020.53 54.022 1020.56 48.175Z" fill="#080808"/>
<path d="M989.714 51.092C990.869 51.078 992.038 51.078 993.223 51.107C992.801 55.94 992.913 60.787 992.913 65.634C992.096 65.647 990.474 65.663 989.673 65.663C989.714 60.815 989.714 55.954 989.714 51.092Z" fill="#050505"/>
<path d="M285.004 77.245C270.828 63.098 250.805 55.065 230.767 55.799C215.323 55.827 200.146 61.18 187.816 70.41C171.19 82.697 160.254 102.173 157.832 122.646C157.578 128.606 157.676 134.567 157.972 140.527C161.311 168.99 182.181 194.594 209.63 203.091C224.13 207.517 240.265 208.376 254.596 202.851C255.835 202.81 256.96 202.463 257.973 201.808C284.077 193.288 303.144 168.273 306.803 141.331C310.071 118.136 301.688 93.675 285.004 77.245Z" fill="#F1151F"/>
<path d="M329.87 59.406L332.266 59.448C332.182 67.564 332.182 75.695 332.21 83.826L329.856 83.939C329.855 75.765 329.813 67.578 329.87 59.406Z" fill="#050404"/>
<path d="M434.708 59.377C446.136 59.476 457.549 59.462 468.978 59.363C473.064 73.497 476.095 87.913 480.222 102.031C485.718 124.745 492.271 147.207 497.596 169.965C501.641 157.409 504.065 144.403 507.503 131.694C513.648 107.612 519.366 83.446 525.681 59.406C536.446 59.419 547.212 59.49 557.978 59.377C566.897 96.226 575.466 133.173 584.581 169.951C594.741 133.116 604.34 96.113 614.668 59.321C625.588 59.548 636.509 59.419 647.443 59.392C631.874 108.387 616.934 157.579 601.463 206.602C590.502 206.628 579.524 206.532 568.546 206.686C559.149 170.148 550.469 133.441 541.098 96.902C539.801 100.875 539.095 105.018 538.112 109.063L537.786 109.26C537.294 109.556 536.294 110.162 535.8 110.471C532.786 118.601 531.376 127.213 529.092 135.554C527.782 140.147 527.389 144.925 527.641 149.674C523.838 168.809 518.385 187.606 514.029 206.628C502.742 206.587 491.456 206.628 480.155 206.587C464.75 157.591 450.066 108.372 434.708 59.377Z" fill="#231F20"/>
<path d="M678.414 59.363C689.207 59.463 700 59.49 710.809 59.377C710.796 108.47 710.725 157.565 710.837 206.659C700 206.572 689.181 206.587 678.357 206.671C678.498 157.564 678.37 108.47 678.414 59.363Z" fill="#231F20"/>
<path d="M841.221 56.432C834.36 55.799 827.357 55.122 820.566 56.629C804.444 60.336 791.087 73.073 785.662 88.588C785.731 78.866 785.718 69.143 785.761 59.434C776.573 59.434 767.386 59.448 758.212 59.434L755.761 59.377C755.787 108.443 755.859 157.522 755.732 206.602C766.427 206.544 777.136 206.544 787.846 206.587C787.692 182.478 787.776 158.367 787.788 134.258C787.678 128.691 788.762 123.196 789.86 117.772L790.184 117.645C793.368 105.541 801.205 94.197 812.97 89.182C817.888 86.772 823.468 86.997 828.78 86.35C832.924 86.856 837.095 87.222 841.265 87.561C841.137 77.189 841.235 66.803 841.221 56.432Z" fill="#050505"/>
<path d="M384.698 85.051L386.008 84.305C386.333 111.275 386.008 138.274 386.164 165.244C386.122 169.007 386.981 172.67 387.418 176.376C386.968 176.574 386.093 176.968 385.644 177.166C384.798 172.782 384.178 168.33 384.248 163.863C385.135 137.596 384.177 111.317 384.698 85.051Z" fill="#050505"/>
<path d="M127.874 95.323C127.057 82.642 119.898 70.086 108.851 63.533C98.705 56.967 86.151 55.459 74.3 55.741C58.082 56.292 41.694 64.732 33.465 78.964C33.239 78.837 32.775 78.584 32.549 78.457C33.139 53.558 32.534 28.644 32.859 3.745C22.093 3.745 11.328 3.787 0.562012 3.718C0.604012 71.355 0.619012 138.978 0.562012 206.616C11.313 206.517 22.08 206.531 32.831 206.616C32.718 177.813 32.831 149.025 32.76 120.223C32.647 113.839 34.183 107.582 36.085 101.538C38.932 98.226 40.595 94.027 43.794 90.998C47.823 86.742 53.207 84.248 58.561 82.107L58.815 81.825C66.636 80.739 74.64 80.894 82.178 83.417C85.039 86.08 88.759 87.841 90.886 91.238C93.324 94.987 94.084 99.494 95.748 103.581C96.931 112.373 96.494 121.251 96.564 130.087C96.522 155.591 96.649 181.097 96.508 206.602C107.203 206.559 117.884 206.501 128.579 206.617C128.566 175.925 128.566 145.235 128.566 114.544C128.537 108.133 128.818 101.693 127.874 95.323Z" fill="#050505"/>
<path d="M535.797 110.471C536.291 110.161 537.291 109.555 537.783 109.26C534.218 122.675 531.627 136.357 527.637 149.674C527.385 144.925 527.779 140.148 529.088 135.554C531.373 127.213 532.783 118.602 535.797 110.471Z" fill="#050505"/>
<path d="M157.972 140.528C156.408 134.694 156.323 128.494 157.832 122.647C157.578 128.607 157.676 134.567 157.972 140.528Z" fill="#E59095"/>
<path d="M989.39 141.177H992.264C992.913 133.271 993.139 125.182 991.561 117.363C988.604 94.143 973.498 71.871 952.305 61.838C952.21 61.789 952.123 61.743 952.027 61.693C926.303 48.635 898.932 59.742 898.932 59.742L898.935 59.743C881.528 66.165 867.116 80.433 860.133 97.594C852.072 115.616 850.902 136.245 855.03 155.423L854.974 155.692C857.581 167.754 862.596 179.505 870.954 188.72C883.395 203.024 902.502 210.633 921.315 210.491C944.34 211.804 969.392 201.91 981.442 181.507C986.078 175.334 988.29 167.852 990.235 160.497C979.991 160.468 969.732 160.454 959.489 160.511C959.219 161.554 958.656 163.639 958.376 164.682C956.224 168.038 954.267 171.576 951.628 174.562C949.365 176.732 947.112 178.55 944.88 180.059C944.502 180.267 944.124 180.474 943.736 180.664C943.699 180.737 943.657 180.809 943.619 180.882C929.923 189.468 917.112 186.63 908.155 182.126C908.1 182.032 908.034 181.947 907.982 181.853C907.377 181.609 906.779 181.347 906.187 181.076C900.414 177.829 896.587 174.143 895.685 173.235C887.987 164.804 885.169 152.825 884.945 141.586C919.767 141.261 954.599 142.064 989.39 141.177ZM883.848 120.898L885.129 120.758C885.172 112.373 887.427 103.877 892.429 97.071C901.687 83.233 921.19 77.117 936.505 83.895C951.035 89.87 959.403 105.412 959.939 120.631L961.252 120.716C956.418 123.69 950.555 122.477 945.202 122.633C927.377 122.633 909.55 122.477 891.739 122.717C888.963 122.857 886.271 122.195 883.848 120.898Z" fill="#080607"/>
</svg>
