<?xml version="1.0" encoding="utf-8"?>
<!-- Generator: Adobe Illustrator 23.0.6, SVG Export Plug-In . SVG Version: 6.00 Build 0)  -->
<svg version="1.1" id="Layer_1" xmlns="http://www.w3.org/2000/svg" xmlns:xlink="http://www.w3.org/1999/xlink" x="0px" y="0px"
	 viewBox="0 0 266.7 48" style="enable-background:new 0 0 266.7 48;" xml:space="preserve">
<style type="text/css">
	.st0{fill-rule:evenodd;clip-rule:evenodd;fill:#54565A;}
	.st1{fill-rule:evenodd;clip-rule:evenodd;fill:#0071CE;}
</style>
<g>
	<g>
		<path class="st0" d="M150.3,25.1c0.4,0.3,0.9,0.5,1.4,0.7l4-3.5c-0.5-0.1-0.9-0.3-1.3-0.5c-0.8-0.3-1.5-0.7-2.1-1.2
			c-0.5-0.4-0.7-1.1-0.7-2c0-0.3,0.1-0.7,0.2-1c0.1-0.4,0.3-0.7,0.7-1c0.3-0.3,0.7-0.6,1.3-0.8c0.5-0.2,1.2-0.3,2.1-0.3
			c0.9,0,1.4,0.2,2.1,0.5c1.2,0.7,2.2,1.9,2.2,1.9l3.4-3.1c0,0-1.8-2-3.4-2.9c-1.2-0.6-2.9-0.9-4.3-0.9c-1.5,0-3,0.4-4.1,0.9
			c-1.1,0.5-1.9,1.1-2.6,1.8c-0.7,0.7-1.2,1.6-1.5,2.5c-0.3,0.9-0.5,1.7-0.5,2.5c0,1.7,0.3,3.1,1,4.1
			C148.5,23.7,149.3,24.5,150.3,25.1z"/>
		<path class="st1" d="M160.1,24c-0.7-0.4-1.5-0.7-2.3-1l-4.1,3.6c0.8,0.3,1.6,0.5,2.4,0.8c0.8,0.3,1.5,0.7,2.1,1.2
			c0.5,0.4,0.7,1,0.7,1.7c0,0.6-0.1,1.1-0.4,1.5c-0.3,0.4-0.6,0.8-1,1.1c-0.4,0.3-0.9,0.5-1.4,0.7c-1.5,0.4-2.9,0.3-4.2-0.4
			c-1.4-0.8-2.4-2.3-2.4-2.3L146,34c0,0,2,2.2,3.9,3.1c1.5,0.7,3,1.1,4.6,1.1c1.2,0,2.5-0.3,3.6-0.7c1.1-0.4,2-1,2.8-1.7
			c0.8-0.7,1.5-1.6,1.9-2.6c0.5-1,0.7-2.2,0.7-3.4c0-1.6-0.3-2.8-1-3.8C161.9,25.2,161.1,24.5,160.1,24z"/>
	</g>
	<path class="st1" d="M226.9,15.9h-0.1c-2-3-5-5-8.7-5c-7.3,0-11.9,6.3-11.9,13.2c0,7.2,4.4,13.6,12.1,13.6c3.6,0,6.6-1.9,8.6-4.8
		h0.1v3.9h4.9V11.7h-4.9V15.9z M218.9,33.4c-5.1,0-8-4.4-8-9.2c0-4.7,3-9.1,8-9.1c5.2,0,8.2,4.2,8.2,9.1
		C227.1,29.2,224.2,33.4,218.9,33.4z"/>
	<polygon class="st1" points="262,11.7 262,2 257.1,2 257.1,11.7 254.5,11.7 254.5,16.2 257.1,16.2 257.1,36.9 262,36.9 262,16.2 
		266.7,16.2 266.7,11.7 	"/>
	<path class="st1" d="M247.2,11.5c-3.2,0-4.9,1.3-6.1,4.3v-4.1h-4.9v25.2h4.9V25.5c0-1.8,0.2-9.2,5.4-9.2c1.1,0,2.2-0.1,3.7-0.1
		l0-4.8H247.2z"/>
	<path class="st1" d="M193.9,10.9c-3.2,0-6.2,1.8-7.8,4.5c-1.6-2.8-4-4.5-7.3-4.5c-2.8,0-5.3,1.7-6.7,3.9h-0.1v-3.2h-4.9v25.2h4.9
		V24.5c0-3.9,0.4-9.3,5.6-9.3c4.5,0,4.6,5,4.6,8.3v13.4h4.9V24.5c0-3.9,0.4-9.3,5.6-9.3c4.3,0,4.7,4.2,4.7,7.4v14.3h4.9V21.8
		C202.3,16.1,200.5,10.9,193.9,10.9z"/>
	<path class="st0" d="M62.1,24c-0.9-0.5-1.9-0.9-3-1.2c-1-0.3-2-0.6-2.8-0.9c-0.8-0.3-1.5-0.7-2.1-1.2c-0.5-0.4-0.7-1.1-0.7-2
		c0-0.3,0.1-0.7,0.2-1c0.1-0.4,0.3-0.7,0.7-1c0.3-0.3,0.7-0.6,1.3-0.8c0.5-0.2,1.2-0.3,2.1-0.3c0.9,0,1.4,0.2,2.1,0.5
		c1.2,0.7,2.2,1.9,2.2,1.9l3.4-3.1c0,0-1.8-2-3.4-2.9c-1.2-0.6-2.9-0.9-4.3-0.9c-1.5,0-3,0.4-4.1,0.9c-1.1,0.5-1.9,1.1-2.6,1.8
		c-0.7,0.7-1.2,1.6-1.5,2.5c-0.3,0.9-0.5,1.7-0.5,2.5c0,1.7,0.3,3,1,4.1c0.6,1,1.4,1.8,2.4,2.4c0.9,0.6,1.9,1,3,1.4
		c1,0.3,2,0.6,2.9,1c0.8,0.3,1.5,0.7,2.1,1.2c0.5,0.4,0.7,1,0.7,1.7c0,0.6-0.1,1.1-0.4,1.5c-0.3,0.4-0.6,0.8-1,1.1
		c-0.4,0.3-0.9,0.5-1.4,0.7c-1.5,0.4-2.9,0.3-4.2-0.4c-1.4-0.8-2.4-2.3-2.4-2.3L48,34c0,0,2,2.2,3.9,3.1c1.5,0.7,3,1.1,4.6,1.1
		c1.2,0,2.5-0.3,3.6-0.7c1.1-0.4,2-1,2.8-1.7c0.8-0.7,1.5-1.6,1.9-2.6c0.5-1,0.7-2.2,0.7-3.4c0-1.6-0.3-2.8-1-3.8
		C63.9,25.2,63.1,24.5,62.1,24z"/>
	<polygon class="st0" points="127.2,15.6 132.7,15.6 132.7,38.2 138.1,38.2 138.1,15.6 143.6,15.6 143.6,10.9 127.2,10.9 	"/>
	<polygon class="st0" points="108.8,38.2 114.1,38.2 114.1,26.2 121.8,26.2 121.8,21.6 114.1,21.6 114.1,15.6 122.3,15.6 
		122.3,10.9 108.8,10.9 	"/>
	<rect x="96.9" y="10.9" class="st0" width="5.3" height="27.3"/>
	<polygon class="st0" points="85,21.7 75.1,21.7 75.1,10.9 69.8,10.9 69.8,38.2 75.1,38.2 75.1,26 85,26 85,38.2 90.3,38.2 
		90.3,10.9 85,10.9 	"/>
	<path class="st0" d="M26,10c-1.1,0-2,0.9-2,2v8h4v-8C28,10.9,27.1,10,26,10z"/>
	<path class="st0" d="M24,46c0,1.1,0.9,2,2,2s2-0.9,2-2v-2h-4V46z"/>
	<rect x="24" y="22" class="st0" width="4" height="20"/>
	<path class="st0" d="M10,0C8.9,0,8,0.9,8,2v10h4V2C12,0.9,11.1,0,10,0z"/>
	<rect x="8" y="14" class="st0" width="4" height="6"/>
	<path class="st0" d="M8,36c0,1.1,0.9,2,2,2s2-0.9,2-2V22H8V36z"/>
	<rect x="32" y="14" class="st1" width="4" height="6"/>
	<path class="st1" d="M34,4c-1.1,0-2,0.9-2,2v6h4V6C36,4.9,35.1,4,34,4z"/>
	<path class="st1" d="M32,40c0,1.1,0.9,2,2,2s2-0.9,2-2V22h-4V40z"/>
	<path class="st1" d="M18,6c-1.1,0-2,0.9-2,2v12h4V8C20,6.9,19.1,6,18,6z"/>
	<path class="st1" d="M16,40c0,1.1,0.9,2,2,2s2-0.9,2-2v-2h-4V40z"/>
	<rect x="16" y="22" class="st1" width="4" height="14"/>
	<path class="st1" d="M2,6C0.9,6,0,6.9,0,8v2h4V8C4,6.9,3.1,6,2,6z"/>
	<rect y="12" class="st1" width="4" height="8"/>
	<path class="st1" d="M0,40c0,1.1,0.9,2,2,2s2-0.9,2-2V22H0V40z"/>
</g>
</svg>
