<svg class="svg-social" width="601" height="138" viewBox="0 0 601 138" fill="none" xmlns="http://www.w3.org/2000/svg">
  <style>
    .svg-social path { fill: #24292e; }
    @media (prefers-color-scheme: dark) { .svg-social path { fill: #cfd7dd; } }
  </style>
  <path d="M505.9 1H491.9C490.7 1 489.6 1.99999 489.6 3.29999V69.2C489.6 76.2 483.8 81 475.3 81C466.8 81 461.3 76 461.3 69.2V3.29999C461.3 2.09999 460.3 1 459 1H444.7C443.5 1 442.4 1.99999 442.4 3.29999V69.2C442.4 86.1 456.7 99.6 474.8 99.6C493 99.6 507.6 86.2 507.6 69.2V3.29999C507.8 2.29999 507.4 1.4 506.4 1C506.3 1 506.1 1 505.9 1Z" fill="black"/>
  <path d="M568.7 0.999994H538C536.8 0.999994 535.7 1.99998 535.7 3.29998V95.8C535.7 97 536.7 98.1 538 98.1H552C553.2 98.1 554.3 97.1 554.3 95.8V60.7C554.3 59.7 554.9 58.6 556 58.6C556 58.6 556 58.6 556.2 58.6H569C584.9 59.8 599 48.1 600.2 32.2C601.4 16.3 589.7 2.19999 573.8 0.999994C572 0.699994 570.4 0.699994 568.7 0.999994ZM568.7 40.2H556.1C555.1 40.2 554 39.6 554 38.5C554 38.5 554 38.5 554 38.3V21.4C554 20.4 554.6 19.3 555.7 19.3C555.7 19.3 555.7 19.3 555.9 19.3H568.7C574.3 19.5 578.8 24.1 579 29.6C579.1 35.5 574.5 40 568.7 40.2Z" fill="black"/>
  <path d="M62.6 40.2H2.50001C1.30001 40.2 0.200012 41.2 0.200012 42.5V56.5C0.200012 57.7 1.00001 58.6 2.30001 58.6H2.50001H21.5C22.5 58.6 23.6 59.2 23.6 60.3C23.6 60.3 23.6 60.3 23.6 60.5V135C23.6 136.2 24.6 137.3 25.9 137.3H39.9C41.1 137.3 42.2 136.3 42.2 135V60.6C42.2 59.6 43 58.7 44.1 58.5H63.3C64.5 58.5 65.6 57.5 65.6 56.2V42.2C65.1 41 63.8 40.2 62.6 40.2Z" fill="black"/>
  <path d="M152.1 40.2H138.1C136.9 40.2 135.8 41.2 135.8 42.5V77.6C135.8 78.6 135 79.5 133.9 79.7H112.4C111.4 79.7 110.3 79.1 110.3 78C110.3 78 110.3 78 110.3 77.8V42.5C110.3 41.3 109.3 40.2 108 40.2H94.2C93 40.2 91.9 41.2 91.9 42.5V135C91.9 136.2 92.9 137.3 94.2 137.3H107.6C108.8 137.3 110.5 136.3 110.5 135V99.9C110.5 98.9 111.1 97.8 112.2 97.8C112.2 97.8 112.2 97.8 112.4 97.8H133.9C134.9 97.8 135.8 98.6 136 99.7V135C136 136.2 137 137.3 138.3 137.3H152.3C153.5 137.3 154.6 136.3 154.6 135V42.5C154.3 41.2 153.3 40.2 152.1 40.2Z" fill="black"/>
  <path d="M245.4 69.1C245.4 53.2 232.4 40.2 216.5 40.2H185.9C184.7 40.2 183.6 41.2 183.6 42.5V135C183.6 136.2 184.6 137.3 185.9 137.3H199.9C201.1 137.3 202.2 136.3 202.2 135V99.9C202.2 98.9 202.8 97.8 203.9 97.8C203.9 97.8 203.9 97.8 204.1 97.8H208C209.4 97.8 210.7 98.6 211.1 100.1L225.4 134.8C225.8 136.2 227.3 137.3 228.9 137.3H243.4C244.2 137.5 245.1 137.1 245.5 136.3C245.9 135.5 245.9 134.6 245.5 133.8L230.4 98.7C229.4 96.4 229.2 95 231.4 93.3C241.3 86.7 245.4 79.2 245.4 69.1ZM216.5 79.5H203.9C202.9 79.5 201.8 78.9 201.8 77.8C201.8 77.8 201.8 77.8 201.8 77.6V60.7C201.8 59.7 202.6 58.8 203.7 58.6H216.5C222.1 58.6 226.8 63.4 226.8 68.9C227 74.5 222.7 79.2 217.1 79.4C216.9 79.5 216.7 79.5 216.5 79.5Z" fill="black"/>
  <path d="M324.6 118.7H291.5C290.5 118.7 289.4 118.1 289.4 117C289.4 117 289.4 117 289.4 116.8V99.9C289.4 98.9 290 97.8 291.1 97.8C291.1 97.8 291.1 97.8 291.3 97.8H315.7C316.9 97.8 318 96.8 318 95.5V81.5C318 80.3 317 79.2 315.7 79.2H291.5C290.5 79.2 289.4 78.6 289.4 77.5C289.4 77.5 289.4 77.5 289.4 77.3V60.4C289.4 59.4 290.2 58.5 291.3 58.3H324.6C325.8 58.3 326.9 57.3 326.9 56V42C326.9 40.8 325.9 39.7 324.6 39.7H273.2C272 39.7 270.9 40.7 270.9 42V134.5C270.9 135.7 271.9 136.8 273.2 136.8H324.6C325.8 136.8 326.9 135.8 326.9 134.5V120.5C326.6 119.5 325.6 118.7 324.6 118.7Z" fill="black"/>
  <path d="M385.9 40.2H356.4C355.2 40.2 354.1 41.2 354.1 42.5V135C354.1 136.2 355.1 137.3 356.4 137.3H385.9C401.8 137.3 414.4 124.7 416.5 106.9C417.9 94.9 417.9 82.9 416.5 71C414.4 52.8 401.8 40.2 385.9 40.2ZM397.9 106.9C397.1 113.9 392.1 118.9 385.7 118.9H374.5C373.5 118.9 372.4 118.3 372.4 117.2C372.4 117.2 372.4 117.2 372.4 117V60.6C372.4 59.6 373.2 58.7 374.3 58.5H385.7C392.1 58.5 397.1 63.5 397.9 70.5C399.3 82.6 399.3 94.7 397.9 106.9Z" fill="black"/>
</svg>
